<svg width="856" height="189" viewBox="0 0 856 189" fill="none" xmlns="http://www.w3.org/2000/svg">
<path d="M59.4535 108.76V147.042C59.4535 154.926 56.3216 162.487 50.7467 168.062C45.1719 173.636 37.6108 176.768 29.7267 176.768C21.8427 176.768 14.2816 173.636 8.70676 168.062C3.13191 162.487 0 154.926 0 147.042L0 88.7109C0.873267 74.4535 18.5881 67.9129 28.8713 78.1604L59.4356 108.743L59.4535 108.76Z" fill="#37E2D5"/>
<path d="M196.521 31.1109V82.9723C196.414 68.1446 178.147 61.0158 167.649 71.495L146.424 92.7564L140.275 98.905L137.085 102.149L120.457 118.776L120.333 118.919C119.994 119.293 119.638 119.667 119.281 120.024C116.556 122.705 113.329 124.821 109.785 126.253C106.24 127.684 102.448 128.401 98.6257 128.364H98.2871C94.3954 128.447 90.5268 127.746 86.9112 126.304C83.2955 124.862 80.0065 122.708 77.2396 119.97C76.7941 119.525 76.3485 119.061 75.9386 118.598L59.4356 102.149L28.8891 71.495C18.3921 61.0158 0.124752 68.1446 0 82.9723V31.1109C0 14.9109 12.6356 1.04555 28.8535 0.564358C36.5402 0.331509 44.0146 3.10643 49.6871 8.29901L90.3743 49.004L98.2158 56.8634L104.364 50.7505L146.834 8.29901C152.515 3.10862 159.994 0.334398 167.685 0.564358C183.903 1.04555 196.521 14.9109 196.521 31.1109Z" fill="#37E2D5"/>
<path d="M53.2693 95.9287L56.2455 98.905L98.2515 56.8634L87.0059 45.6356L53.2693 95.9287Z" fill="#009E8F"/>
<path d="M196.521 89.6733V147.042C196.331 154.797 193.117 162.171 187.564 167.59C182.012 173.008 174.561 176.041 166.803 176.041C159.045 176.041 151.594 173.008 146.042 167.59C140.489 162.171 137.275 154.797 137.085 147.042V108.743L167.65 78.1604C178.218 67.699 196.414 74.8099 196.521 89.6733Z" fill="#37E2D5"/>
<path d="M253.16 122.113C253.848 122.328 254.535 122.479 255.223 122.564C255.91 122.607 256.598 122.629 257.285 122.629C259.004 122.629 260.658 122.393 262.248 121.92C263.838 121.447 265.32 120.781 266.695 119.922C268.113 119.02 269.359 117.945 270.434 116.699C271.551 115.41 272.453 113.992 273.141 112.445L286.031 125.4C284.398 127.721 282.508 129.805 280.359 131.652C278.254 133.5 275.955 135.068 273.463 136.357C271.014 137.646 268.414 138.613 265.664 139.258C262.957 139.945 260.164 140.289 257.285 140.289C252.43 140.289 247.854 139.387 243.557 137.582C239.303 135.777 235.564 133.264 232.342 130.041C229.162 126.818 226.648 122.994 224.801 118.568C222.953 114.1 222.029 109.201 222.029 103.873C222.029 98.416 222.953 93.4316 224.801 88.9199C226.648 84.4082 229.162 80.5625 232.342 77.3828C235.564 74.2031 239.303 71.7324 243.557 69.9707C247.854 68.209 252.43 67.3281 257.285 67.3281C260.164 67.3281 262.979 67.6719 265.729 68.3594C268.479 69.0469 271.078 70.0352 273.527 71.3242C276.02 72.6133 278.34 74.2031 280.488 76.0938C282.637 77.9414 284.527 80.0254 286.16 82.3457L253.16 122.113ZM262.184 85.8262C261.367 85.5254 260.551 85.332 259.734 85.2461C258.961 85.1602 258.145 85.1172 257.285 85.1172C254.879 85.1172 252.602 85.5684 250.453 86.4707C248.348 87.3301 246.5 88.5762 244.91 90.209C243.363 91.8418 242.139 93.8184 241.236 96.1387C240.334 98.416 239.883 100.994 239.883 103.873C239.883 104.518 239.904 105.248 239.947 106.064C240.033 106.881 240.141 107.719 240.27 108.578C240.441 109.395 240.635 110.189 240.85 110.963C241.064 111.736 241.344 112.424 241.688 113.025L262.184 85.8262ZM329.666 139C325.412 139 321.416 138.205 317.678 136.615C313.939 134.982 310.652 132.77 307.816 129.977C305.023 127.141 302.811 123.854 301.178 120.115C299.588 116.377 298.793 112.381 298.793 108.127V87.6309H290.221V70.0996H298.793V42.5137H316.324V70.0996H343.008V87.6309H316.324V108.127C316.324 109.975 316.668 111.715 317.355 113.348C318.043 114.938 318.988 116.334 320.191 117.537C321.395 118.74 322.812 119.707 324.445 120.438C326.078 121.125 327.818 121.469 329.666 121.469H343.008V139H329.666ZM419.771 139H415.518L408.686 129.525C407.01 131.029 405.227 132.447 403.336 133.779C401.488 135.068 399.533 136.207 397.471 137.195C395.408 138.141 393.281 138.893 391.09 139.451C388.941 140.01 386.75 140.289 384.516 140.289C379.66 140.289 375.084 139.473 370.787 137.84C366.533 136.207 362.795 133.844 359.572 130.75C356.393 127.613 353.879 123.789 352.031 119.277C350.184 114.766 349.26 109.631 349.26 103.873C349.26 98.502 350.184 93.582 352.031 89.1133C353.879 84.6016 356.393 80.7344 359.572 77.5117C362.795 74.2891 366.533 71.7969 370.787 70.0352C375.084 68.2305 379.66 67.3281 384.516 67.3281C386.75 67.3281 388.963 67.6074 391.154 68.166C393.346 68.7246 395.473 69.498 397.535 70.4863C399.598 71.4746 401.553 72.6348 403.4 73.9668C405.291 75.2988 407.053 76.7383 408.686 78.2852L415.518 70.0996H419.771V139ZM402.047 103.873C402.047 101.467 401.574 99.1465 400.629 96.9121C399.727 94.6348 398.48 92.6367 396.891 90.918C395.301 89.1562 393.432 87.7598 391.283 86.7285C389.178 85.6543 386.922 85.1172 384.516 85.1172C382.109 85.1172 379.832 85.5254 377.684 86.3418C375.578 87.1582 373.73 88.3613 372.141 89.9512C370.594 91.541 369.369 93.5176 368.467 95.8809C367.564 98.2012 367.113 100.865 367.113 103.873C367.113 106.881 367.564 109.566 368.467 111.93C369.369 114.25 370.594 116.205 372.141 117.795C373.73 119.385 375.578 120.588 377.684 121.404C379.832 122.221 382.109 122.629 384.516 122.629C386.922 122.629 389.178 122.113 391.283 121.082C393.432 120.008 395.301 118.611 396.891 116.893C398.48 115.131 399.727 113.133 400.629 110.898C401.574 108.621 402.047 106.279 402.047 103.873ZM466.693 74.2891C466.693 70.4648 467.424 66.877 468.885 63.5254C470.346 60.1738 472.322 57.252 474.814 54.7598C477.35 52.2246 480.293 50.2266 483.645 48.7656C486.996 47.3047 490.584 46.5742 494.408 46.5742H536.818V65.0723H494.408C493.119 65.0723 491.916 65.3086 490.799 65.7812C489.682 66.2539 488.693 66.9199 487.834 67.7793C487.018 68.5957 486.373 69.5625 485.9 70.6797C485.428 71.7969 485.191 73 485.191 74.2891C485.191 75.5781 485.428 76.8027 485.9 77.9629C486.373 79.0801 487.018 80.0684 487.834 80.9277C488.693 81.7441 489.682 82.3887 490.799 82.8613C491.916 83.334 493.119 83.5703 494.408 83.5703H512.906C516.73 83.5703 520.318 84.3008 523.67 85.7617C527.064 87.1797 530.008 89.1562 532.5 91.6914C535.035 94.1836 537.012 97.127 538.43 100.521C539.891 103.873 540.621 107.461 540.621 111.285C540.621 115.109 539.891 118.697 538.43 122.049C537.012 125.4 535.035 128.344 532.5 130.879C530.008 133.371 527.064 135.348 523.67 136.809C520.318 138.27 516.73 139 512.906 139H471.85V120.502H512.906C514.195 120.502 515.398 120.266 516.516 119.793C517.633 119.32 518.6 118.676 519.416 117.859C520.275 117 520.941 116.012 521.414 114.895C521.887 113.777 522.123 112.574 522.123 111.285C522.123 109.996 521.887 108.793 521.414 107.676C520.941 106.559 520.275 105.592 519.416 104.775C518.6 103.916 517.633 103.25 516.516 102.777C515.398 102.305 514.195 102.068 512.906 102.068H494.408C490.584 102.068 486.996 101.338 483.645 99.877C480.293 98.416 477.35 96.4395 474.814 93.9473C472.322 91.4121 470.346 88.4688 468.885 85.1172C467.424 81.7227 466.693 78.1133 466.693 74.2891ZM584.385 139C580.131 139 576.135 138.205 572.396 136.615C568.658 134.982 565.371 132.77 562.535 129.977C559.742 127.141 557.529 123.854 555.896 120.115C554.307 116.377 553.512 112.381 553.512 108.127V87.6309H544.939V70.0996H553.512V42.5137H571.043V70.0996H597.727V87.6309H571.043V108.127C571.043 109.975 571.387 111.715 572.074 113.348C572.762 114.938 573.707 116.334 574.91 117.537C576.113 118.74 577.531 119.707 579.164 120.438C580.797 121.125 582.537 121.469 584.385 121.469H597.727V139H584.385ZM674.361 103.873C674.361 109.029 673.438 113.842 671.59 118.311C669.742 122.736 667.229 126.582 664.049 129.848C660.869 133.07 657.131 135.627 652.834 137.518C648.58 139.365 644.004 140.289 639.105 140.289C634.25 140.289 629.674 139.365 625.377 137.518C621.123 135.627 617.385 133.07 614.162 129.848C610.982 126.582 608.469 122.736 606.621 118.311C604.773 113.842 603.85 109.029 603.85 103.873C603.85 98.6309 604.773 93.7754 606.621 89.3066C608.469 84.8379 610.982 80.9922 614.162 77.7695C617.385 74.5039 621.123 71.9473 625.377 70.0996C629.674 68.252 634.25 67.3281 639.105 67.3281C644.004 67.3281 648.58 68.209 652.834 69.9707C657.131 71.6895 660.869 74.1602 664.049 77.3828C667.229 80.5625 669.742 84.4082 671.59 88.9199C673.438 93.3887 674.361 98.373 674.361 103.873ZM656.637 103.873C656.637 101.037 656.164 98.4805 655.219 96.2031C654.316 93.8828 653.07 91.9062 651.48 90.2734C649.891 88.5977 648.021 87.3301 645.873 86.4707C643.768 85.5684 641.512 85.1172 639.105 85.1172C636.699 85.1172 634.422 85.5684 632.273 86.4707C630.168 87.3301 628.32 88.5977 626.73 90.2734C625.184 91.9062 623.959 93.8828 623.057 96.2031C622.154 98.4805 621.703 101.037 621.703 103.873C621.703 106.537 622.154 109.008 623.057 111.285C623.959 113.562 625.184 115.539 626.73 117.215C628.32 118.891 630.168 120.223 632.273 121.211C634.422 122.156 636.699 122.629 639.105 122.629C641.512 122.629 643.768 122.178 645.873 121.275C648.021 120.373 649.891 119.105 651.48 117.473C653.07 115.84 654.316 113.863 655.219 111.543C656.164 109.223 656.637 106.666 656.637 103.873ZM701.689 139H684.094V69.9707H688.348L694.148 78.1562C696.984 75.5781 700.207 73.6016 703.816 72.2266C707.426 70.8086 711.164 70.0996 715.031 70.0996H730.564V87.6309H715.031C713.184 87.6309 711.443 87.9746 709.811 88.6621C708.178 89.3496 706.76 90.2949 705.557 91.498C704.354 92.7012 703.408 94.1191 702.721 95.752C702.033 97.3848 701.689 99.125 701.689 100.973V139ZM764.918 122.113C765.605 122.328 766.293 122.479 766.98 122.564C767.668 122.607 768.355 122.629 769.043 122.629C770.762 122.629 772.416 122.393 774.006 121.92C775.596 121.447 777.078 120.781 778.453 119.922C779.871 119.02 781.117 117.945 782.191 116.699C783.309 115.41 784.211 113.992 784.898 112.445L797.789 125.4C796.156 127.721 794.266 129.805 792.117 131.652C790.012 133.5 787.713 135.068 785.221 136.357C782.771 137.646 780.172 138.613 777.422 139.258C774.715 139.945 771.922 140.289 769.043 140.289C764.188 140.289 759.611 139.387 755.314 137.582C751.061 135.777 747.322 133.264 744.1 130.041C740.92 126.818 738.406 122.994 736.559 118.568C734.711 114.1 733.787 109.201 733.787 103.873C733.787 98.416 734.711 93.4316 736.559 88.9199C738.406 84.4082 740.92 80.5625 744.1 77.3828C747.322 74.2031 751.061 71.7324 755.314 69.9707C759.611 68.209 764.188 67.3281 769.043 67.3281C771.922 67.3281 774.736 67.6719 777.486 68.3594C780.236 69.0469 782.836 70.0352 785.285 71.3242C787.777 72.6133 790.098 74.2031 792.246 76.0938C794.395 77.9414 796.285 80.0254 797.918 82.3457L764.918 122.113ZM773.941 85.8262C773.125 85.5254 772.309 85.332 771.492 85.2461C770.719 85.1602 769.902 85.1172 769.043 85.1172C766.637 85.1172 764.359 85.5684 762.211 86.4707C760.105 87.3301 758.258 88.5762 756.668 90.209C755.121 91.8418 753.896 93.8184 752.994 96.1387C752.092 98.416 751.641 100.994 751.641 103.873C751.641 104.518 751.662 105.248 751.705 106.064C751.791 106.881 751.898 107.719 752.027 108.578C752.199 109.395 752.393 110.189 752.607 110.963C752.822 111.736 753.102 112.424 753.445 113.025L773.941 85.8262Z" fill="#37E2D5"/>
</svg>
